<svg width="178" height="31" viewBox="0 0 178 31" fill="none" xmlns="http://www.w3.org/2000/svg">
<path d="M0.624442 30V1.16921H6.88484L17.3875 18.2617L12.8981 18.2206L23.5243 1.16921H29.5376V30H22.7418V21.0213C22.7418 18.5501 22.7967 16.326 22.9065 14.349C23.0438 12.372 23.2635 10.4088 23.5655 8.45928L24.3481 10.601L16.3578 22.9982H13.6395L5.81398 10.6834L6.59653 8.45928C6.89857 10.299 7.10451 12.1936 7.21434 14.1431C7.35163 16.0651 7.42027 18.3579 7.42027 21.0213V30H0.624442ZM49.9222 30.4119C47.7256 30.4119 45.7211 30.0412 43.9089 29.2998C42.0967 28.5585 40.5179 27.5151 39.1724 26.1696C37.827 24.8242 36.7836 23.2454 36.0422 21.4331C35.3009 19.6209 34.9302 17.6302 34.9302 15.461C34.9302 13.2919 35.3009 11.3012 36.0422 9.48895C36.7836 7.67673 37.827 6.0979 39.1724 4.75247C40.5179 3.40703 42.0967 2.36363 43.9089 1.62227C45.7211 0.880903 47.7118 0.510222 49.881 0.510222C52.0502 0.510222 54.0409 0.880903 55.8531 1.62227C57.6653 2.36363 59.2441 3.40703 60.5896 4.75247C61.935 6.0979 62.9647 7.67673 63.6786 9.48895C64.42 11.3012 64.7906 13.2919 64.7906 15.461C64.7906 17.6028 64.42 19.5935 63.6786 21.4331C62.9647 23.2454 61.935 24.8242 60.5896 26.1696C59.2441 27.5151 57.6653 28.5585 55.8531 29.2998C54.0409 30.0412 52.0639 30.4119 49.9222 30.4119ZM49.881 23.822C51.0068 23.822 52.0365 23.616 52.97 23.2042C53.931 22.7923 54.7548 22.2157 55.4412 21.4743C56.1551 20.7055 56.7043 19.8131 57.0887 18.7972C57.4731 17.7812 57.6653 16.6692 57.6653 15.461C57.6653 14.2529 57.4731 13.1409 57.0887 12.1249C56.7043 11.109 56.1551 10.2303 55.4412 9.48895C54.7548 8.72013 53.931 8.12979 52.97 7.71792C52.0365 7.30605 51.0068 7.10011 49.881 7.10011C48.7552 7.10011 47.7118 7.30605 46.7508 7.71792C45.8172 8.12979 44.9935 8.72013 44.2796 9.48895C43.5657 10.2303 43.0165 11.109 42.6321 12.1249C42.2752 13.1409 42.0967 14.2529 42.0967 15.461C42.0967 16.6692 42.2752 17.795 42.6321 18.8384C43.0165 19.8543 43.5657 20.733 44.2796 21.4743C44.9935 22.2157 45.8172 22.7923 46.7508 23.2042C47.7118 23.616 48.7552 23.822 49.881 23.822ZM70.2077 30V1.16921H90.3069V7.1413H77.0035V24.0279H90.7187V30H70.2077ZM73.5026 18.1794V12.4956H88.4534V18.1794H73.5026ZM104.827 30L93.2942 1.16921H100.584L106.144 15.8729C106.474 16.7241 106.749 17.4655 106.968 18.097C107.215 18.7285 107.421 19.3189 107.586 19.868C107.778 20.4172 107.943 20.9801 108.08 21.5567C108.245 22.1059 108.423 22.7374 108.616 23.4513H107.339C107.559 22.5177 107.778 21.694 107.998 20.9801C108.218 20.2387 108.465 19.4836 108.739 18.7148C109.014 17.9185 109.357 16.9712 109.769 15.8729L115.123 1.16921H122.29L110.675 30H104.827ZM119.313 30L130.721 1.16921H136.652L147.979 30H140.895L135.458 15.3787C135.238 14.8021 135.019 14.1843 134.799 13.5253C134.579 12.8663 134.36 12.1936 134.14 11.5071C133.92 10.7932 133.701 10.1068 133.481 9.44777C133.289 8.76132 133.124 8.12979 132.987 7.55317L134.222 7.51199C134.058 8.19843 133.865 8.87115 133.646 9.53014C133.454 10.1891 133.248 10.8481 133.028 11.5071C132.836 12.1386 132.616 12.7839 132.369 13.4429C132.122 14.0744 131.888 14.7334 131.669 15.4199L126.232 30H119.313ZM124.749 24.481L126.932 19.209H140.194L142.336 24.481H124.749ZM151.576 30V1.16921H157.836L172.952 21.7626L171.593 21.5567C171.455 20.6506 171.346 19.7857 171.263 18.9619C171.181 18.1382 171.098 17.3282 171.016 16.5319C170.961 15.7356 170.906 14.9256 170.851 14.1019C170.824 13.2781 170.796 12.3858 170.769 11.4247C170.769 10.4637 170.769 9.42031 170.769 8.29453V1.16921H177.565V30H171.222L155.447 8.74759L157.548 9.0359C157.685 10.3539 157.795 11.4797 157.877 12.4132C157.987 13.3193 158.07 14.1293 158.125 14.8432C158.207 15.5571 158.262 16.2024 158.289 16.779C158.317 17.3556 158.33 17.9323 158.33 18.5089C158.358 19.058 158.372 19.6758 158.372 20.3623V30H151.576Z" fill="white"/>
</svg>
